<?xml version="1.0" encoding="UTF-8"?>
<svg version="1.1" viewBox="0 0 2048 2048" width="1280" height="1280" xmlns="http://www.w3.org/2000/svg">
<path transform="translate(169,15)" d="m0 0h1701l55 1 14 2 20 6 12 5 17 10 11 9 10 9 10 11 9 13 8 15 7 19 5 19v1439l-5 24-6 18-11 21-9 12-11 12-10 9-13 9-18 10-14 5-16 4-14 2-17 1h-28v221l-1 17-6 21-8 17-8 12-11 12-10 9-16 10-16 7-14 4-20 2h-1477l-14-1-18-5-19-9-14-10-13-12-11-14-11-21-5-18-3-23v-34l1-185h-31l-27-1-14-2-15-4-16-7-16-9-13-10-10-9-11-12-10-15-8-16-5-14-5-19-1-8v-1443l9-29 8-16 9-14 11-13 5-6 10-8 11-8 20-11 18-6 12-3 10-1z" fill="#514F5D"/>
<path transform="translate(1664,1342)" d="m0 0h97l15 1 18 4 13 5 15 8 13 9 13 12 11 15 8 16 5 14 3 15 1 36v222l3 1h-3v221l-1 17-6 21-8 17-8 12-11 12-10 9-16 10-16 7-14 4-20 2h-1477l-14-1-18-5-19-9-14-10-13-12-11-14-11-21-5-18-3-23v-34l1-185-3-1h2v-227l1-24 3-19 7-19 10-18 11-13 8-8 12-9 16-9 14-5 11-3 16-2z" fill="#FE6456"/>
<path transform="translate(169,15)" d="m0 0h1701l55 1 14 2 20 6 12 5 17 10 11 9 10 9 10 11 9 13 8 15 7 19 5 19v215h-2044l-4-1v-217l9-29 8-16 9-14 11-13 5-6 10-8 11-8 20-11 18-6 12-3 10-1z" fill="#6A49EF"/>
<path transform="translate(1264,1522)" d="m0 0h29l20 3 17 5 16 8 11 8 8 7 8 11 8 16 5 21 2 25v122l-2 20-4 17-5 12-6 11-10 11-5 5-14 9-16 7-15 4-12 2-11 1h-16l-20-2-19-5-16-7-11-7-10-9-8-9-8-15-5-16-3-19-1-12v-126l2-19 3-14 5-14 8-13 11-13 14-10 17-8 19-5z" fill="#FEFEFE"/>
<path transform="translate(674,1522)" d="m0 0h108l20 2 21 5 17 8 11 8 5 4 9 12 6 12 4 12 3 19v22l-3 22-6 18-9 15-11 11-14 9-9 4 2 5 10 19 9 16 15 27 12 22 6 12v12l-4 8-10 11-16 8-4 1h-14l-9-4-7-8-12-23-10-19-11-22-10-19-15-30-3-4h-28l-1 1-1 109-4 8-9 6-12 3h-17l-11-3-8-4-5-6-2-8v-280l2-9 6-8z" fill="#FEFEFE"/>
<path transform="translate(932,1522)" d="m0 0h110l19 2 17 4 15 6 10 6 10 8 9 10 8 15 5 17 2 19v13l-3 25-6 18-6 11-9 11-14 11-14 7 1 4 14 26 14 25 13 23 11 21 1 3v9l-4 9-8 10-13 8-10 3h-13l-9-4-8-9-17-33-12-24-10-19-15-29-6-11h-29l-1 109-4 8-7 6-9 3-5 1h-17l-12-3-9-6-3-4-2-7-1-144v-50l1-90 3-9 7-7z" fill="#FEFEFE"/>
<path transform="translate(1449,1522)" d="m0 0h110l19 2 17 4 15 6 13 8 10 9 7 9 7 14 4 13 3 22v12l-3 25-5 16-7 14-11 13-15 11-11 5 2 6 9 17 13 23 12 22 13 23 4 8 1 4v8l-6 12-10 10-12 6-7 2h-13l-9-4-8-9-18-35-21-41-9-17-8-16-4-7h-29l-1 107-3 9-7 6-11 4-6 1h-15l-11-3-9-5-4-5-2-7-1-166v-27l1-92 4-9 5-5z" fill="#FEFEFE"/>
<path transform="translate(440,1522)" d="m0 0h169l6 2 5 4 5 10 1 4v17l-4 11-6 8-8 3h-121v75l72 1 6 3 4 5 4 9 1 5v9l-4 11-7 8-11 2h-65l1 55v20l118 1 9 2 6 7 4 9 1 6v13l-3 10-6 9-6 3h-171l-10-3-8-6-3-5-1-5v-284l3-9 7-6 7-3z" fill="#FEFEFE"/>
<path transform="translate(705,151)" d="m0 0h586l11 1 9 4 8 7 4 5 4 10 1 9-4 11-6 8-7 6-6 2-26 1h-591l-12-1-11-6-7-9-2-5-1-6v-8l3-10 4-6 5-5 8-5 10-2z" fill="#482AB5"/>
<path transform="translate(464,892)" d="m0 0h564l12 2 9 4 7 6 6 11 2 12-2 9-4 8-5 6-10 6-7 2-8 1h-564l-12-3-10-7-7-10-3-9v-10l4-10 9-10 9-6z" fill="#FED969"/>
<path transform="translate(327,487)" d="m0 0h425l16 2 10 6 8 10 3 9v13l-4 10-8 9-6 4-14 3h-433l-10-3-9-7-6-8-3-8v-14l4-9 6-8 9-6 5-2z" fill="#00A9F4"/>
<path transform="translate(377,1163)" d="m0 0h223l72 1 11 4 6 4 5 6 4 8 1 3v15l-4 9-6 8-10 6-8 2-70 1h-266l-14-1-12-6-5-4-6-10-2-6v-13l4-10 6-8 10-6 6-2z" fill="#00A9F4"/>
<path transform="translate(332,1029)" d="m0 0 338 1 10 3 8 5 7 8 4 10v13l-5 12-5 5-8 6-6 2-8 1h-341l-9-2-10-6-6-7-5-12v-13l6-11 7-7 12-6z" fill="#A9C69A"/>
<path transform="translate(458,762)" d="m0 0h321l11 3 10 8 6 10 2 7v12l-4 9-9 10-12 6-5 1h-316l-10-3-9-6-7-8-3-7-1-5v-9l3-9 6-9 9-7z" fill="#FE7D9C"/>
<path transform="translate(1702,735)" d="m0 0h113l84 1 19 1 10 2 9 7 6 8 3 7v15l-5 10-5 6-11 7-9 1h-322l-15-2-10-7-6-9-2-4-1-10 2-10 4-8 7-7 10-5 7-1 29-1z" fill="#3F3C46"/>
<path transform="translate(1644,595)" d="m0 0h218l55 1 12 3 10 9 6 9 1 3v16l-6 11-8 8-5 3-4 1-30 1h-265l-10-1h-31l-7-2-4-1v-2l-4-1-8-9-3-7v-17l4-9 6-7 8-5 7-2 9-1z" fill="#3F3C46"/>
<path transform="translate(1652,876)" d="m0 0h183l74 1 14 1 7 3 10 9 5 9 2 13-4 11-7 9-8 6-6 2-12 1h-291l-34-1-8-3-9-7-6-9-1-3v-17l5-10 5-6 8-5 6-2 12-1z" fill="#3F3C46"/>
<path transform="translate(1626,1158)" d="m0 0h273l22 1 7 2 6 4 5 5 6 9 2 9v7l-4 10-9 10-5 4-8 3h-309l-25-1-10-3-6-4-8-9-2-7v-17l4-9 8-8 10-4 8-1z" fill="#3F3C46"/>
<path transform="translate(1642,455)" d="m0 0h227l52 1 11 4 8 8 6 12 1 9-2 9-6 9-5 6-10 5-8 1h-312l-20-1-10-4-8-7-4-7-1-6v-16l5-10 7-6 8-4 6-1 12-1z" fill="#3F3C46"/>
<path transform="translate(1848,1017)" d="m0 0 69 1 11 2 9 7 6 8 3 8 1 9-3 10-6 9-10 8-8 2-57 1-270-1-13-2-11-7-6-8-2-5v-18l5-10 4-5 8-5 11-3z" fill="#3F3C46"/>
<path transform="translate(916,761)" d="m0 0 309 1 10 3 8 5 6 7 5 11v14l-6 12-7 7-11 5-9 1h-312l-9-2-10-6-7-9-3-7-1-5v-9l4-10 8-9 10-6 6-2z" fill="#A9C69A"/>
<path transform="translate(689,624)" d="m0 0h219l13 2 9 4 8 7 5 10 2 8v7l-4 11-6 8-8 6-10 3-9 1h-220l-13-3-10-6-7-9-3-9-1-10 3-10 7-10 10-7 6-2z" fill="#FED869"/>
<path transform="translate(328,624)" d="m0 0h223l12 2 10 5 5 5 4 5 3 7 1 5v10l-4 10-6 8-8 6-11 3-214 1-20-1-11-4-9-7-6-12-1-3v-13l4-10 7-9 9-5z" fill="#00A9F4"/>
<path transform="translate(1273,1581)" d="m0 0h13l12 3 9 6 6 7 4 9 2 10 1 11v110l-1 18-3 12-7 9-5 5-10 5-10 2h-10l-13-3-9-6-5-6-4-8-3-13v-136l3-14 6-10 10-7 9-3z" fill="#FE6658"/>
<path transform="translate(777,1029)" d="m0 0h114l13 2 10 5 7 7 5 10 1 3v13l-4 10-7 8-9 6-8 2-29 1h-91l-14-2-10-5-7-7-5-11-1-12 2-9 6-9 8-7 11-4z" fill="#00A9F4"/>
<path transform="translate(1512,1580)" d="m0 0h30l16 2 9 3 8 5 6 9 4 11 1 7v12l-3 14-6 9-5 5-9 5-11 2-25 1h-23l-3-2v-82z" fill="#FE6859"/>
<path transform="translate(736,1580)" d="m0 0h31l16 2 10 4 6 4 5 6 5 12 1 6v18l-3 12-7 10-10 7-6 2-7 1-25 1h-23l-3-1-1-37v-44l1-2z" fill="#FE6859"/>
<path transform="translate(996,1580)" d="m0 0h29l21 3 11 6 6 7 5 14 1 6v13l-2 12-5 9-5 6-9 5-5 2-8 1-26 1h-19l-6-2v-81l1-1z" fill="#FE6859"/>
<path transform="translate(505,140)" d="m0 0h9l15 5 8 5 5 4 7 11 3 9 1 5v13l-4 11-6 9-7 7-10 6-9 3h-13l-15-5-9-7-7-7-5-11-2-10v-8l3-12 6-10 9-9 10-6z" fill="#FCDA6A"/>
<path transform="translate(178,140)" d="m0 0h8l14 4 10 6 7 7 7 14 2 12-1 12-5 12-10 11-11 7-10 3h-11l-13-4-9-5-8-7-4-6-3-7-2-9v-13l3-10 6-9 4-5 13-9z" fill="#FCDA6A"/>
<path transform="translate(347,140)" d="m0 0 11 1 13 4 11 8 6 9 4 9 2 10v10l-4 12-8 11-8 7-11 5-9 2-11-1-11-4-10-6-7-7-5-10-2-6v-20l4-10 6-8 9-8 12-6z" fill="#A9C69A"/>
<path transform="translate(1862,141)" d="m0 0h15l14 5 9 7 7 8 5 12 1 3v17l-3 9-6 10-9 8-10 5-6 2-11 1-10-2-14-7-7-6-6-10-3-9-1-4v-12l3-11 7-10 8-8 6-4z" fill="#FF7E9D"/>
<path transform="translate(194,488)" d="m0 0h10l11 4 8 6 7 11 2 7-1 12-6 12-7 7-8 4-8 2h-7l-10-3-9-7-6-9-3-8v-12l4-10 8-9 8-5z" fill="#A9C69A"/>
<path transform="translate(196,625)" d="m0 0h7l10 3 6 4 5 5 6 9 2 8-1 11-4 9-9 10-10 5-5 1h-8l-10-3-8-6-6-7-4-11v-12l4-10 8-9 12-6z" fill="#A9C69A"/>
<path transform="translate(197,1030)" d="m0 0 10 1 9 4 8 7 6 9 2 8-1 11-6 12-7 7-9 5-4 1h-11l-9-3-6-4-5-5-6-10-1-5v-11l3-9 7-9 9-6 5-2z" fill="#A9C69A"/>
<path transform="translate(195,893)" d="m0 0 13 1 10 5 5 5 4 5 4 9 1 9-2 8-5 10-7 7-10 5-5 1h-9l-10-4-8-6-6-8-3-9v-12l4-10 8-9 9-5z" fill="#A9C69A"/>
<path transform="translate(192,763)" d="m0 0h14l9 3 10 9 5 9 2 7-1 11-6 12-8 8-11 5h-13l-10-4-7-5-6-9-3-8v-13l4-9 6-8 9-6z" fill="#A9C69A"/>
<path transform="translate(192,1165)" d="m0 0h15l12 6 8 9 4 9 1 10-4 13-9 10-8 5-7 2h-11l-10-4-8-7-6-9-2-7v-11l3-9 7-9 9-6z" fill="#A9C69A"/>
<path transform="translate(985,1716)" d="m0 0h29l5 8 9 18-1 2-10-19-3-6-4-1h-24v104l-3 10-2 1 2-7 1-109z" fill="#FEAA84"/>
<path transform="translate(1466,350)" d="m0 0h23l-2 4-3-2h-10l-8-1z" fill="#3F3C46"/>
</svg>
